<?xml version="1.0" standalone="no"?>
<!DOCTYPE svg PUBLIC "-//W3C//DTD SVG 1.1//EN" "http://www.w3.org/Graphics/SVG/1.1/DTD/svg11.dtd" >
<svg xmlns="http://www.w3.org/2000/svg" xmlns:xlink="http://www.w3.org/1999/xlink" version="1.1">
<metadata>
Created by FontForge 20170731 at Fri Nov 27 21:03:53 2015
 By Aleksey,,,
</metadata>
<defs>
<font id="New-YorkerC" horiz-adv-x="662" >
  <font-face 
    font-family="New-YorkerC"
    font-weight="400"
    font-stretch="normal"
    units-per-em="1000"
    panose-1="2 0 0 0 0 0 0 0 0 0"
    ascent="800"
    descent="-200"
    x-height="768"
    cap-height="768"
    bbox="-11 -206 1168 945"
    underline-thickness="0"
    underline-position="0"
    unicode-range="U+0020-2122"
  />
<missing-glyph horiz-adv-x="270" 
 />
    <glyph glyph-name=".notdef" horiz-adv-x="270" 
 />
    <glyph glyph-name=".null" horiz-adv-x="0" 
 />
    <glyph glyph-name="nonmarkingreturn" horiz-adv-x="333" 
 />
    <glyph glyph-name="space" unicode=" " horiz-adv-x="270" 
 />
    <glyph glyph-name="space" unicode="&#xa0;" horiz-adv-x="270" 
 />
    <glyph glyph-name="exclam" unicode="!" horiz-adv-x="160" 
d="M99 768v-251q0 -116 -8 -207.5t-16 -139.5h-13q-7 48 -15 139.5t-8 207.5v251h60zM119 45q0 -20 -14.5 -35t-34.5 -15q-21 0 -35.5 15t-14.5 35q0 21 14.5 35.5t35.5 14.5q20 0 34.5 -14.5t14.5 -35.5z" />
    <glyph glyph-name="quotedbl" unicode="&#x22;" horiz-adv-x="246" 
d="M101 768l-19 -227h-17l-20 227h56zM201 768l-19 -227h-17l-20 227h56z" />
    <glyph glyph-name="numbersign" unicode="#" horiz-adv-x="577" 
d="M372 514h-130l-54 -141h130zM271 175l-25 13l60 156h-130l-65 -169l-25 13l60 156h-96v29h108l54 141h-122v29h133l65 167l26 -11l-60 -156h129l65 167l26 -11l-60 -156h113v-29h-125l-54 -141h139v-29h-151z" />
    <glyph glyph-name="dollar" unicode="$" horiz-adv-x="490" 
d="M213 570q0 -28 11 -51.5t28 -42.5l56 235q-40 -3 -67.5 -39t-27.5 -102zM292 436l63 264q-7 4 -14.5 6.5t-16.5 3.5l-59 -248q7 -7 14 -13zM204 65l75 314q-7 7 -14 13t-14 13l-79 -334q7 -2 15 -3.5t17 -2.5zM369 225q0 43 -23 76.5t-54 64.5l-72 -302q79 1 114 52
t35 109zM216 41h-1l-15 -63l-16 5l14 59q-8 0 -16 2l-16 2l-16 -68l-16 5l16 67q-45 12 -77.5 41t-32.5 73q0 34 20 58.5t42 34.5l4 -3q-8 -29 -8 -56q0 -24 6 -47q12 -50 53 -73l81 340q-31 31 -54.5 66t-23.5 81q0 64 43 113.5t110 54.5l17 70l15 -5l-15 -65q8 0 16 -1.5
t16 -3.5l18 75l15 -5l-18 -75q31 -13 52 -35t21 -42q0 -15 -15 -28t-20 -13q-1 0 -11 31q-10 30 -35 53l-63 -265q41 -36 77 -81.5t36 -120.5q0 -71 -54 -126t-149 -55z" />
    <glyph glyph-name="percent" unicode="%" horiz-adv-x="723" 
d="M30 634q0 65 44 109.5t113 44.5q66 0 111 -44.5t45 -109.5q0 -67 -45 -111t-111 -44q-69 0 -113 44.5t-44 110.5zM589 759l-429 -605l-18 18l428 602zM65 634q0 -66 37 -101.5t85 -35.5q47 0 84 35.5t37 101.5q0 65 -37 100.5t-84 35.5q-48 0 -85 -35.5t-37 -100.5z
M380 271q0 65 44 109.5t113 44.5q66 0 111 -44.5t45 -109.5q0 -67 -45 -111t-111 -44q-69 0 -113 44.5t-44 110.5zM415 271q0 -66 37 -101.5t85 -35.5q47 0 84 35.5t37 101.5q0 65 -37 100.5t-84 35.5q-48 0 -85 -35.5t-37 -100.5z" />
    <glyph glyph-name="ampersand" unicode="&#x26;" horiz-adv-x="510" 
d="M282 -17q-104 0 -171 61t-67 154q0 115 89.5 188t174.5 94q-72 5 -136.5 40t-64.5 118q0 69 59.5 109.5t125.5 40.5q74 0 113.5 -31.5t51.5 -57.5q2 -4 2 -8q0 -11 -13 -18q-19 -11 -33 -9q-9 34 -40.5 68.5t-80.5 34.5q-60 0 -80.5 -40.5t-20.5 -83.5q0 -52 34 -97
t141 -57l-2 -18q-108 -16 -171.5 -89t-63.5 -179q0 -78 36.5 -136.5t117.5 -58.5q73 0 123 34t50 103q0 57 -38 99.5t-92 42.5q-40 0 -59.5 -21t-19.5 -50q0 -32 19 -41.5t37 -7.5q1 -2 1 -5q0 -8 -9 -17q-12 -12 -33 -12q-23 0 -42.5 17.5t-19.5 53.5q0 43 44 75.5
t125 32.5q69 0 111.5 11.5t55.5 43.5q11 -1 18 -11.5t7 -22.5q0 -27 -45 -38q-27 -7 -67 -7q-24 0 -54 3q23 -10 59 -45t36 -96q0 -53 -47.5 -110t-160.5 -57z" />
    <glyph glyph-name="quotesingle" unicode="'" horiz-adv-x="146" 
d="M101 768l-19 -227h-17l-20 227h56z" />
    <glyph glyph-name="parenleft" unicode="(" horiz-adv-x="283" 
d="M242 -20q-57 51 -124.5 155t-67.5 249q0 144 67.5 248.5t124.5 155.5l11 10h20l-12 -15q-40 -51 -92.5 -140.5t-52.5 -258.5t51.5 -258t93.5 -141l12 -15h-20z" />
    <glyph glyph-name="parenright" unicode=")" horiz-adv-x="283" 
d="M41 788q57 -51 124.5 -155.5t67.5 -248.5q0 -145 -67.5 -249t-124.5 -155l-11 -10h-20l12 15q42 52 93.5 141t51.5 258t-52.5 258.5t-92.5 140.5l-12 15h20z" />
    <glyph glyph-name="asterisk" unicode="*" horiz-adv-x="313" 
d="M231 563l-32 -18l-44 92l-41 -92l-31 18l57 84l-100 -10v36l98 -8l-56 82l32 18l41 -90l44 90l31 -18l-57 -82l100 8v-36l-102 9z" />
    <glyph glyph-name="plus" unicode="+" horiz-adv-x="315" 
d="M141 217v151h-121v33h121v150h33v-150h121v-33h-121v-151h-33z" />
    <glyph glyph-name="comma" unicode="," horiz-adv-x="139" 
d="M20 45q0 21 14.5 35.5t35.5 14.5q20 0 35.5 -15.5t15.5 -41.5q0 -31 -34 -80.5t-93 -74.5l-5 9q28 15 51.5 42t32.5 66q-5 -1 -9 -1q-17 0 -29 12q-15 14 -15 34z" />
    <glyph glyph-name="hyphen" unicode="-" horiz-adv-x="270" 
d="M240 396v-28h-210v28h210z" />
    <glyph glyph-name="hyphen" unicode="&#xad;" horiz-adv-x="270" 
d="M240 396v-28h-210v28h210z" />
    <glyph glyph-name="period" unicode="." horiz-adv-x="139" 
d="M119 45q0 -20 -14.5 -35t-34.5 -15q-21 0 -35.5 15t-14.5 35q0 21 14.5 35.5t35.5 14.5q20 0 34.5 -14.5t14.5 -35.5z" />
    <glyph glyph-name="slash" unicode="/" horiz-adv-x="512" 
d="M512 802l-484 -857l-28 17l483 854z" />
    <glyph glyph-name="zero" unicode="0" horiz-adv-x="816" 
d="M50 386q0 172 100 287t257 115q158 0 258.5 -114.5t100.5 -287.5q0 -175 -100.5 -289t-258.5 -114q-157 0 -257 114.5t-100 288.5zM135 387q0 -169 63 -276t209 -107q147 0 210.5 106.5t63.5 275.5q0 168 -63.5 274.5t-210.5 106.5q-146 0 -209 -107t-63 -273z" />
    <glyph glyph-name="one" unicode="1" horiz-adv-x="209" 
d="M139 768v-768h-63v691q0 10 -2 13t-12 3h-52v7l123 54h6z" />
    <glyph glyph-name="two" unicode="2" horiz-adv-x="551" 
d="M173 33q-48 0 -88 -18q-40 -19 -62 -29l-3 2q6 78 59.5 157t194.5 188q107 83 137.5 142t30.5 124q0 87 -49 127.5t-114 40.5q-88 0 -122 -51.5t-34 -108.5q0 -45 15 -68.5t46 -23.5q25 0 43 12.5t27 31.5q12 -11 12 -23q0 -13 -16 -27q-29 -27 -71 -27q-51 0 -87 34.5
t-36 89.5q0 80 67 129.5t156 49.5q110 0 178.5 -63t68.5 -128q0 -77 -50.5 -140.5t-181.5 -152.5q-89 -60 -154.5 -131.5t-85.5 -146.5q25 28 63.5 44.5t81.5 16.5q49 0 89 -18q40 -19 108 -19q41 0 80 14t55 42q10 -10 10 -24q0 -19 -21 -44q-36 -44 -123 -44
q-60 0 -113.5 21t-110.5 21z" />
    <glyph glyph-name="three" unicode="3" horiz-adv-x="555" 
d="M271 -17q-101 0 -171 60t-70 123q0 51 26 75.5t51 24.5q12 0 22 -5.5t11 -13.5q-19 -10 -27.5 -27.5t-8.5 -49.5q0 -51 34 -108.5t133 -57.5t136.5 66t37.5 141q0 94 -59.5 155.5t-140.5 61.5l-3 23q84 0 120.5 44.5t36.5 113.5q0 51 -29 105.5t-104 54.5
q-58 0 -93 -35.5t-35 -70.5q0 -58 35 -69q14 -5 28 -5q20 0 38 10q1 -16 -12 -35.5t-56 -19.5q-24 0 -56 24t-32 73q0 57 53.5 102t133.5 45q85 0 147 -51t62 -126q0 -59 -55.5 -108.5t-109.5 -62.5q75 -15 148 -78.5t73 -145.5q0 -93 -72 -163t-192 -70z" />
    <glyph glyph-name="four" unicode="4" horiz-adv-x="604" 
d="M406 0v188h-396v35l440 545h19v-531h116v-49h-116v-188h-63zM406 237v423l-337 -423h337z" />
    <glyph glyph-name="five" unicode="5" horiz-adv-x="598" 
d="M261 -17q-97 0 -163.5 54.5t-66.5 124.5q0 38 22 65.5t53 27.5q16 0 25.5 -7t13.5 -18q-19 -7 -30 -26t-11 -47q0 -63 38 -108t119 -45q79 0 144 59.5t65 183.5q0 101 -42.5 159t-136.5 58q-73 0 -117.5 -31.5t-72.5 -58.5h-19l70 394h395l-10 -53h-362l-51 -295
q27 28 72 49.5t106 21.5q101 0 179.5 -65.5t78.5 -178.5q0 -98 -89.5 -181t-209.5 -83z" />
    <glyph glyph-name="six" unicode="6" horiz-adv-x="700" 
d="M444 792q40 0 74.5 -10t61.5 -29l-12 -19q-17 13 -47.5 23t-71.5 10q-157 0 -235.5 -125.5t-78.5 -280.5q0 -140 55.5 -248.5t180.5 -108.5q90 0 144.5 73.5t54.5 166.5q0 86 -35 156t-131 70q-66 0 -98.5 -41.5t-45.5 -76.5q-19 0 -23 23q-1 6 -1 12q0 15 9 29
q29 41 73.5 59t86.5 18q91 0 171.5 -66t80.5 -190q0 -122 -96 -188t-190 -66q-127 0 -224 105.5t-97 275.5t114.5 299t279.5 129z" />
    <glyph glyph-name="seven" unicode="7" horiz-adv-x="646" 
d="M303 0h-63v82q0 213 90 376t203 262h-318q-48 0 -79 -14.5t-58 -56.5l-8 4l33 115h503l8 -18q-127 -116 -219 -261t-92 -428v-61z" />
    <glyph glyph-name="eight" unicode="8" horiz-adv-x="628" 
d="M314 -17q-138 0 -208.5 68t-70.5 155q0 104 76 153t125 59q-62 11 -110.5 62t-48.5 119q0 94 75 141.5t162 47.5t162 -47t75 -142q0 -68 -48.5 -119t-110.5 -62q49 -10 125 -59t76 -153q0 -87 -70.5 -155t-208.5 -68zM314 767q-81 0 -116 -48.5t-35 -119.5
q0 -81 36.5 -126.5t114.5 -45.5t114.5 45.5t36.5 126.5q0 71 -35 119.5t-116 48.5zM314 406q-83 0 -138 -49.5t-55 -150.5q0 -104 56 -154t137 -50t137 50t56 154q0 101 -55 150.5t-138 49.5z" />
    <glyph glyph-name="nine" unicode="9" horiz-adv-x="599" 
d="M268 -16l-15 19q114 100 173 201t59 254q0 138 -49.5 223.5t-150.5 85.5q-87 0 -133 -60.5t-46 -159.5q0 -86 33 -150t121 -64q75 0 99.5 43.5t33.5 83.5q16 0 25 -24q2 -6 2 -13q0 -20 -16 -44q-21 -31 -61.5 -50t-82.5 -19q-70 0 -155 57.5t-85 178.5q0 113 86.5 177.5
t178.5 64.5q110 0 197 -87.5t87 -242.5q0 -142 -93 -263t-208 -211z" />
    <glyph glyph-name="colon" unicode=":" horiz-adv-x="139" 
d="M119 375q0 -20 -14.5 -35t-34.5 -15q-21 0 -35.5 15t-14.5 35q0 21 14.5 35.5t35.5 14.5q20 0 34.5 -14.5t14.5 -35.5zM119 45q0 -20 -14.5 -35t-34.5 -15q-21 0 -35.5 15t-14.5 35q0 21 14.5 35.5t35.5 14.5q20 0 34.5 -14.5t14.5 -35.5z" />
    <glyph glyph-name="semicolon" unicode=";" horiz-adv-x="139" 
d="M119 375q0 -20 -14.5 -35t-34.5 -15q-21 0 -35.5 15t-14.5 35q0 21 14.5 35.5t35.5 14.5q20 0 34.5 -14.5t14.5 -35.5zM20 45q0 21 14.5 35.5t35.5 14.5q20 0 35.5 -15.5t15.5 -41.5q0 -31 -34 -80.5t-93 -74.5l-5 9q28 15 51.5 42t32.5 66q-5 -1 -9 -1q-17 0 -29 12
q-15 14 -15 34z" />
    <glyph glyph-name="less" unicode="&#x3c;" horiz-adv-x="339" 
d="M299 237l-279 147v19l279 148v-32l-237 -126l237 -124v-32z" />
    <glyph glyph-name="equal" unicode="=" horiz-adv-x="315" 
d="M20 464h275v-33h-275v33zM20 384h275v-33h-275v33z" />
    <glyph glyph-name="greater" unicode="&#x3e;" horiz-adv-x="339" 
d="M40 237v32l237 124l-237 126v32l279 -148v-19z" />
    <glyph glyph-name="question" unicode="?" horiz-adv-x="537" 
d="M261 767q-104 0 -133 -53t-29 -90q0 -35 12.5 -48.5t31.5 -19.5q-6 -15 -15 -20t-22 -5q-24 0 -45 21.5t-21 60.5q0 65 64.5 120t157.5 55q84 0 149.5 -53t65.5 -136q0 -101 -108 -182q-108 -82 -108 -188v-38h-20v50q0 119 86 180q85 60 85 182q0 61 -36 112.5
t-115 51.5zM303 45q0 -20 -14.5 -35t-34.5 -15q-21 0 -35.5 15t-14.5 35q0 21 14.5 35.5t35.5 14.5q20 0 34.5 -14.5t14.5 -35.5z" />
    <glyph glyph-name="at" unicode="@" horiz-adv-x="1048" 
d="M415 310l192 20l-101 206zM697 -43q-62 -32 -101.5 -40.5t-81.5 -8.5q-227 0 -340.5 142t-113.5 311q0 183 123.5 317t342.5 134q238 0 354 -151t116 -316q0 -92 -47 -174.5t-124 -82.5q-73 0 -102.5 34t-67.5 110l-32 65l-221 -19l-48 -119h-45l175 423q-10 19 -22 28.5
t-32 9.5v18h85l203 -406h-1q24 -49 46 -80.5t73 -31.5q52 0 88.5 65.5t36.5 164.5q0 181 -118.5 308t-317.5 127q-194 0 -312 -120t-118 -304q0 -169 109 -299.5t310 -130.5q57 0 100.5 13.5t74.5 29.5z" />
    <glyph glyph-name="A" unicode="A" horiz-adv-x="783" 
d="M137 203l423 57l-220 443zM689 0l-113 228l-450 -52l-72 -176h-34l304 736q-4 7 -10 10.5t-14 6.5l-3 1v18l84 -6l382 -766h-74z" />
    <glyph glyph-name="B" unicode="B" horiz-adv-x="558" 
d="M234 -16q-35 0 -71 8q-36 9 -67 9q-5 0 -9 -0.5t-8 -1.5l-2 1v768l2 1q8 -2 14 -3t14 -1q35 0 59 11t67 11q57 0 119 -37t62 -110q0 -52 -42 -88t-89 -49q77 2 156 -70t79 -184q0 -110 -81 -187.5t-203 -77.5zM233 766q-30 0 -52.5 -7.5t-38.5 -20.5v-705
q15 -13 36.5 -20.5t55.5 -7.5q96 0 148.5 68.5t52.5 175.5q0 119 -48 177.5t-118 58.5q-17 0 -29 -3t-23 -7l2 23q42 7 82 43t40 90q0 63 -28 99t-80 36z" />
    <glyph glyph-name="C" unicode="C" horiz-adv-x="789" 
d="M749 80q-37 -33 -105 -65t-162 -32q-166 0 -299 107t-133 290q0 190 138.5 301t300.5 111q85 0 149 -25.5t98 -50.5l-27 -52q-38 42 -91 73.5t-140 31.5q-143 1 -245 -98t-102 -267q0 -210 120 -297t252 -87q86 0 148.5 27t88.5 45z" />
    <glyph glyph-name="D" unicode="D" horiz-adv-x="798" 
d="M748 385q0 -141 -113 -273t-320 -132q-75 0 -138.5 21.5t-106.5 62.5v704l2 1q8 -2 14.5 -3t16.5 -1q48 0 93 14q44 13 121 13q199 0 315 -125t116 -282zM663 385q0 161 -93.5 272t-252.5 111q-69 0 -115 -13t-67 -32v-657q16 -19 59.5 -41t120.5 -22q174 0 261 122
t87 260z" />
    <glyph glyph-name="E" unicode="E" horiz-adv-x="535" 
d="M477 0h-407v768h378l22 -59l-5 -3q-28 28 -53.5 32.5t-82.5 4.5h-194v-270h231q16 0 24 1.5t18 7.5l2 -1v-41l-2 -1q-10 6 -18 7.5t-24 1.5h-231v-423h199q54 0 101 7.5t75 34.5l5 -4z" />
    <glyph glyph-name="F" unicode="F" horiz-adv-x="480" 
d="M135 0h-65v768h358l26 -67l-5 -3q-28 32 -55.5 38.5t-84.5 6.5h-174v-280h192q16 0 24 1.5t18 7.5l2 -1v-41l-2 -1q-10 6 -18 7.5t-24 1.5h-192v-438z" />
    <glyph glyph-name="G" unicode="G" horiz-adv-x="818" 
d="M690 84v292h58v-294q-42 -40 -106.5 -69.5t-163.5 -29.5q-157 0 -292.5 107t-135.5 290q0 192 145.5 302t302.5 110q78 0 140.5 -25.5t97.5 -50.5l-27 -52q-38 42 -92.5 73.5t-138.5 31.5q-126 0 -236.5 -90t-110.5 -276q0 -210 115.5 -297t231.5 -87q90 0 140.5 22
t71.5 43z" />
    <glyph glyph-name="H" unicode="H" 
d="M70 0v768h65v-274h392v274h65v-768h-65v470h-392v-470h-65z" />
    <glyph glyph-name="I" unicode="I" horiz-adv-x="203" 
d="M133 768v-768h-63v768h63z" />
    <glyph glyph-name="J" unicode="J" horiz-adv-x="427" 
d="M358 193q0 -106 -44 -160t-131 -54q-72 0 -124.5 45.5t-52.5 108.5q0 40 24 68t65 28q16 0 28 -7.5t19 -17.5l-1 -2q-34 -4 -56.5 -29t-22.5 -59q0 -52 35 -84t86 -32q63 0 87.5 48t24.5 132v590h63v-575z" />
    <glyph glyph-name="K" unicode="K" horiz-adv-x="473" 
d="M405 -8q-43 0 -78.5 39.5t-35.5 151.5v109q0 130 -35.5 171t-69.5 41q-15 0 -28 -4t-23 -13v-487h-65v768h65v-257l196 257h43v-5l-190 -243q9 2 18 2q50 0 98 -48q56 -56 56 -187v-86q0 -111 24.5 -149t46.5 -38q11 0 22 4t23 16l6 -6q-17 -20 -34 -28t-39 -8z" />
    <glyph glyph-name="L" unicode="L" horiz-adv-x="471" 
d="M70 0v768h65v-743h148q74 0 112 13t60 39l6 -4l-44 -73h-347z" />
    <glyph glyph-name="M" unicode="M" horiz-adv-x="816" 
d="M70 0v768h34l309 -463l309 463h24v-768h-65v649l-284 -424h-4l-287 426v-651h-36z" />
    <glyph glyph-name="N" unicode="N" horiz-adv-x="594" 
d="M70 0v768h37l381 -625v625h36v-768h-19l-399 648v-648h-36z" />
    <glyph glyph-name="O" unicode="O" horiz-adv-x="956" 
d="M51 386q-1 172 134.5 289t292.5 117q158 0 293.5 -116.5t135.5 -289.5q0 -175 -135.5 -291t-293.5 -116q-157 0 -292 116.5t-135 290.5zM136 387q0 -169 98 -277.5t244 -108.5q147 0 245.5 108t98.5 277q0 168 -98.5 276t-245.5 108q-146 0 -244.5 -108.5t-97.5 -274.5z
" />
    <glyph glyph-name="P" unicode="P" horiz-adv-x="475" 
d="M135 0h-65v768l2 1q8 -2 14.5 -3t14.5 -1q37 0 64 11t76 11q78 0 151 -58.5t73 -157.5q0 -117 -83 -168t-147 -51q-22 0 -37.5 3.5t-21.5 7.5l5 12q7 -2 19 -5t35 -3q59 0 105.5 53t46.5 151q0 84 -44.5 140t-110.5 56q-32 0 -56.5 -8.5t-40.5 -18.5v-740z" />
    <glyph glyph-name="Q" unicode="Q" horiz-adv-x="956" 
d="M136 387q0 -169 98 -277.5t244 -108.5q147 0 245.5 108t98.5 277q0 168 -98.5 276t-245.5 108q-146 0 -244.5 -108.5t-97.5 -274.5zM658 -206q-97 0 -159 49q-63 49 -164 49q-45 0 -75 -18.5t-30 -61.5h-7q-1 8 -1 15q0 41 34 67q39 30 93 30q87 0 156 -39
q68 -39 142 -39q38 0 67.5 20.5t29.5 65.5q0 39 -20 63t-47 34q-46 -24 -97 -37t-102 -13q-157 0 -292 116.5t-135 290.5q-1 172 134.5 289t292.5 117q158 0 293.5 -116.5t135.5 -289.5q0 -110 -58.5 -200t-146.5 -143q41 -15 70.5 -51.5t29.5 -76.5q0 -61 -47.5 -91
t-96.5 -30z" />
    <glyph glyph-name="R" unicode="R" horiz-adv-x="521" 
d="M455 -8q-48 0 -83.5 51.5t-35.5 152.5v78q0 128 -44.5 169.5t-77.5 41.5q-10 0 -19 -2t-19 -8l2 23q52 9 97.5 44t45.5 103q0 55 -29.5 89t-76.5 34q-26 0 -44.5 -7.5t-35.5 -18.5v-742h-65v768l2 1q8 -2 14 -3t14 -1q34 0 56 11t65 11q68 0 120.5 -41t52.5 -101
q0 -62 -64 -100.5t-92 -45.5q44 -4 103.5 -52t59.5 -173v-66q0 -116 22 -155t50 -39q12 0 23.5 4t23.5 16l6 -6q-13 -17 -31 -26.5t-40 -9.5z" />
    <glyph glyph-name="S" unicode="S" horiz-adv-x="518" 
d="M372 789q36 0 69.5 -12.5t67.5 -42.5l-35 -46q-19 41 -46 61t-59 20q-51 0 -78.5 -40t-27.5 -109q0 -111 67 -202q67 -92 67 -231q0 -90 -59 -149t-154 -59q-62 0 -118 40.5t-56 97.5q0 34 25 57.5t46 35.5l3 -3q-13 -34 -13 -72q0 -30 8 -62q18 -74 106 -74q74 0 109 42
t35 124q0 127 -66 221t-66 210q0 77 52 135t123 58z" />
    <glyph glyph-name="T" unicode="T" horiz-adv-x="545" 
d="M310 744h-6v-744h-63v744h-6q-47 0 -111 -6t-90 -24l-4 3l25 51h435l25 -51l-4 -3q-26 18 -90 24t-111 6z" />
    <glyph glyph-name="U" unicode="U" horiz-adv-x="620" 
d="M311 -21q-76 0 -125 27t-77 72t-38.5 104.5t-10.5 124.5v461h65v-482q0 -149 45.5 -216t149.5 -67q117 0 163 82q47 83 47 210v473h30v-464q0 -137 -52 -231t-197 -94z" />
    <glyph glyph-name="V" unicode="V" horiz-adv-x="676" 
d="M327 0l-317 768h74l273 -670l275 670h34l-317 -768h-22z" />
    <glyph glyph-name="W" unicode="W" horiz-adv-x="916" 
d="M327 0l-317 768h72l274 -673l86 208l-192 465h69l159 -390l160 390h34l-177 -430l100 -246l277 676h34l-317 -768h-22l-109 264l-109 -264h-22z" />
    <glyph glyph-name="X" unicode="X" horiz-adv-x="697" 
d="M40 0l292 397l-249 371h74l218 -325l236 325h40l-258 -352l279 -416h-74l-248 369l-270 -369h-40z" />
    <glyph glyph-name="Y" unicode="Y" horiz-adv-x="592" 
d="M265 0v380l-235 388h71l213 -354l211 354h37l-233 -386v-382h-64z" />
    <glyph glyph-name="Z" unicode="Z" horiz-adv-x="607" 
d="M544 0h-510l-4 5l459 738h-270q-59 0 -83 -4.5t-52 -31.5l-6 2l22 59h463l4 -5l-452 -738h285q64 0 109.5 10t67.5 32l5 -4z" />
    <glyph glyph-name="bracketleft" unicode="[" horiz-adv-x="278" 
d="M80 -30v828h168v-35h-110v-758h110v-35h-168z" />
    <glyph glyph-name="backslash" unicode="\" horiz-adv-x="278" 
d="M277 -36l-31 -10l-246 853l31 7z" />
    <glyph glyph-name="bracketright" unicode="]" horiz-adv-x="278" 
d="M198 -30h-168v35h110v758h-110v35h168v-828z" />
    <glyph glyph-name="asciicircum" unicode="^" horiz-adv-x="500" 
d="M450 541l-195 178l-195 -178l-13 13l186 214h44l186 -214z" />
    <glyph glyph-name="underscore" unicode="_" horiz-adv-x="410" 
d="M400 -54v-28h-390v28h390z" />
    <glyph glyph-name="grave" unicode="`" horiz-adv-x="500" 
d="M166 903l31 42l4 -1l112 -117l-7 -10z" />
    <glyph glyph-name="a" unicode="a" horiz-adv-x="783" 
d="M137 203l423 57l-220 443zM689 0l-113 228l-450 -52l-72 -176h-34l304 736q-4 7 -10 10.5t-14 6.5l-3 1v18l84 -6l382 -766h-74z" />
    <glyph glyph-name="b" unicode="b" horiz-adv-x="558" 
d="M234 -16q-35 0 -71 8q-36 9 -67 9q-5 0 -9 -0.5t-8 -1.5l-2 1v768l2 1q8 -2 14 -3t14 -1q35 0 59 11t67 11q57 0 119 -37t62 -110q0 -52 -42 -88t-89 -49q77 2 156 -70t79 -184q0 -110 -81 -187.5t-203 -77.5zM233 766q-30 0 -52.5 -7.5t-38.5 -20.5v-705
q15 -13 36.5 -20.5t55.5 -7.5q96 0 148.5 68.5t52.5 175.5q0 119 -48 177.5t-118 58.5q-17 0 -29 -3t-23 -7l2 23q42 7 82 43t40 90q0 63 -28 99t-80 36z" />
    <glyph glyph-name="c" unicode="c" horiz-adv-x="789" 
d="M749 80q-37 -33 -105 -65t-162 -32q-166 0 -299 107t-133 290q0 190 138.5 301t300.5 111q85 0 149 -25.5t98 -50.5l-27 -52q-38 42 -91 73.5t-140 31.5q-143 1 -245 -98t-102 -267q0 -210 120 -297t252 -87q86 0 148.5 27t88.5 45z" />
    <glyph glyph-name="d" unicode="d" horiz-adv-x="798" 
d="M748 385q0 -141 -113 -273t-320 -132q-75 0 -138.5 21.5t-106.5 62.5v704l2 1q8 -2 14.5 -3t16.5 -1q48 0 93 14q44 13 121 13q199 0 315 -125t116 -282zM663 385q0 161 -93.5 272t-252.5 111q-69 0 -115 -13t-67 -32v-657q16 -19 59.5 -41t120.5 -22q174 0 261 122
t87 260z" />
    <glyph glyph-name="e" unicode="e" horiz-adv-x="535" 
d="M477 0h-407v768h378l22 -59l-5 -3q-28 28 -53.5 32.5t-82.5 4.5h-194v-270h231q16 0 24 1.5t18 7.5l2 -1v-41l-2 -1q-10 6 -18 7.5t-24 1.5h-231v-423h199q54 0 101 7.5t75 34.5l5 -4z" />
    <glyph glyph-name="f" unicode="f" horiz-adv-x="480" 
d="M135 0h-65v768h358l26 -67l-5 -3q-28 32 -55.5 38.5t-84.5 6.5h-174v-280h192q16 0 24 1.5t18 7.5l2 -1v-41l-2 -1q-10 6 -18 7.5t-24 1.5h-192v-438z" />
    <glyph glyph-name="g" unicode="g" horiz-adv-x="818" 
d="M690 84v292h58v-294q-42 -40 -106.5 -69.5t-163.5 -29.5q-157 0 -292.5 107t-135.5 290q0 192 145.5 302t302.5 110q78 0 140.5 -25.5t97.5 -50.5l-27 -52q-38 42 -92.5 73.5t-138.5 31.5q-126 0 -236.5 -90t-110.5 -276q0 -210 115.5 -297t231.5 -87q90 0 140.5 22
t71.5 43z" />
    <glyph glyph-name="h" unicode="h" 
d="M70 0v768h65v-274h392v274h65v-768h-65v470h-392v-470h-65z" />
    <glyph glyph-name="i" unicode="i" horiz-adv-x="203" 
d="M133 768v-768h-63v768h63z" />
    <glyph glyph-name="j" unicode="j" horiz-adv-x="427" 
d="M358 193q0 -106 -44 -160t-131 -54q-72 0 -124.5 45.5t-52.5 108.5q0 40 24 68t65 28q16 0 28 -7.5t19 -17.5l-1 -2q-34 -4 -56.5 -29t-22.5 -59q0 -52 35 -84t86 -32q63 0 87.5 48t24.5 132v590h63v-575z" />
    <glyph glyph-name="k" unicode="k" horiz-adv-x="473" 
d="M405 -8q-43 0 -78.5 39.5t-35.5 151.5v109q0 130 -35.5 171t-69.5 41q-15 0 -28 -4t-23 -13v-487h-65v768h65v-257l196 257h43v-5l-190 -243q9 2 18 2q50 0 98 -48q56 -56 56 -187v-86q0 -111 24.5 -149t46.5 -38q11 0 22 4t23 16l6 -6q-17 -20 -34 -28t-39 -8z" />
    <glyph glyph-name="l" unicode="l" horiz-adv-x="471" 
d="M70 0v768h65v-743h148q74 0 112 13t60 39l6 -4l-44 -73h-347z" />
    <glyph glyph-name="m" unicode="m" horiz-adv-x="816" 
d="M70 0v768h34l309 -463l309 463h24v-768h-65v649l-284 -424h-4l-287 426v-651h-36z" />
    <glyph glyph-name="n" unicode="n" horiz-adv-x="594" 
d="M70 0v768h37l381 -625v625h36v-768h-19l-399 648v-648h-36z" />
    <glyph glyph-name="o" unicode="o" horiz-adv-x="956" 
d="M51 386q-1 172 134.5 289t292.5 117q158 0 293.5 -116.5t135.5 -289.5q0 -175 -135.5 -291t-293.5 -116q-157 0 -292 116.5t-135 290.5zM136 387q0 -169 98 -277.5t244 -108.5q147 0 245.5 108t98.5 277q0 168 -98.5 276t-245.5 108q-146 0 -244.5 -108.5t-97.5 -274.5z
" />
    <glyph glyph-name="p" unicode="p" horiz-adv-x="475" 
d="M135 0h-65v768l2 1q8 -2 14.5 -3t14.5 -1q37 0 64 11t76 11q78 0 151 -58.5t73 -157.5q0 -117 -83 -168t-147 -51q-22 0 -37.5 3.5t-21.5 7.5l5 12q7 -2 19 -5t35 -3q59 0 105.5 53t46.5 151q0 84 -44.5 140t-110.5 56q-32 0 -56.5 -8.5t-40.5 -18.5v-740z" />
    <glyph glyph-name="q" unicode="q" horiz-adv-x="956" 
d="M136 387q0 -169 98 -277.5t244 -108.5q147 0 245.5 108t98.5 277q0 168 -98.5 276t-245.5 108q-146 0 -244.5 -108.5t-97.5 -274.5zM658 -206q-97 0 -159 49q-63 49 -164 49q-45 0 -75 -18.5t-30 -61.5h-7q-1 8 -1 15q0 41 34 67q39 30 93 30q87 0 156 -39
q68 -39 142 -39q38 0 67.5 20.5t29.5 65.5q0 39 -20 63t-47 34q-46 -24 -97 -37t-102 -13q-157 0 -292 116.5t-135 290.5q-1 172 134.5 289t292.5 117q158 0 293.5 -116.5t135.5 -289.5q0 -110 -58.5 -200t-146.5 -143q41 -15 70.5 -51.5t29.5 -76.5q0 -61 -47.5 -91
t-96.5 -30z" />
    <glyph glyph-name="r" unicode="r" horiz-adv-x="521" 
d="M455 -8q-48 0 -83.5 51.5t-35.5 152.5v78q0 128 -44.5 169.5t-77.5 41.5q-10 0 -19 -2t-19 -8l2 23q52 9 97.5 44t45.5 103q0 55 -29.5 89t-76.5 34q-26 0 -44.5 -7.5t-35.5 -18.5v-742h-65v768l2 1q8 -2 14 -3t14 -1q34 0 56 11t65 11q68 0 120.5 -41t52.5 -101
q0 -62 -64 -100.5t-92 -45.5q44 -4 103.5 -52t59.5 -173v-66q0 -116 22 -155t50 -39q12 0 23.5 4t23.5 16l6 -6q-13 -17 -31 -26.5t-40 -9.5z" />
    <glyph glyph-name="s" unicode="s" horiz-adv-x="518" 
d="M372 789q36 0 69.5 -12.5t67.5 -42.5l-35 -46q-19 41 -46 61t-59 20q-51 0 -78.5 -40t-27.5 -109q0 -111 67 -202q67 -92 67 -231q0 -90 -59 -149t-154 -59q-62 0 -118 40.5t-56 97.5q0 34 25 57.5t46 35.5l3 -3q-13 -34 -13 -72q0 -30 8 -62q18 -74 106 -74q74 0 109 42
t35 124q0 127 -66 221t-66 210q0 77 52 135t123 58z" />
    <glyph glyph-name="t" unicode="t" horiz-adv-x="545" 
d="M310 744h-6v-744h-63v744h-6q-47 0 -111 -6t-90 -24l-4 3l25 51h435l25 -51l-4 -3q-26 18 -90 24t-111 6z" />
    <glyph glyph-name="u" unicode="u" horiz-adv-x="620" 
d="M311 -21q-76 0 -125 27t-77 72t-38.5 104.5t-10.5 124.5v461h65v-482q0 -149 45.5 -216t149.5 -67q117 0 163 82q47 83 47 210v473h30v-464q0 -137 -52 -231t-197 -94z" />
    <glyph glyph-name="v" unicode="v" horiz-adv-x="676" 
d="M327 0l-317 768h74l273 -670l275 670h34l-317 -768h-22z" />
    <glyph glyph-name="w" unicode="w" horiz-adv-x="916" 
d="M327 0l-317 768h72l274 -673l86 208l-192 465h69l159 -390l160 390h34l-177 -430l100 -246l277 676h34l-317 -768h-22l-109 264l-109 -264h-22z" />
    <glyph glyph-name="x" unicode="x" horiz-adv-x="697" 
d="M40 0l292 397l-249 371h74l218 -325l236 325h40l-258 -352l279 -416h-74l-248 369l-270 -369h-40z" />
    <glyph glyph-name="y" unicode="y" horiz-adv-x="592" 
d="M265 0v380l-235 388h71l213 -354l211 354h37l-233 -386v-382h-64z" />
    <glyph glyph-name="z" unicode="z" horiz-adv-x="607" 
d="M544 0h-510l-4 5l459 738h-270q-59 0 -83 -4.5t-52 -31.5l-6 2l22 59h463l4 -5l-452 -738h285q64 0 109.5 10t67.5 32l5 -4z" />
    <glyph glyph-name="braceleft" unicode="{" horiz-adv-x="278" 
d="M216 -30q-37 0 -86.5 23.5t-49.5 90.5v251q0 29 -14.5 46t-41.5 22v24q27 5 41.5 22t14.5 46v188q0 69 49.5 92t86.5 23h32v-35h-18q-46 0 -69 -19t-23 -59v-189q0 -40 -20 -55.5t-42 -24.5v-2q22 -9 42 -24.5t20 -55.5v-251q0 -40 23 -59t69 -19h18v-35h-32z" />
    <glyph glyph-name="bar" unicode="|" horiz-adv-x="133" 
d="M83 831v-892l-33 -2v894h33z" />
    <glyph glyph-name="braceright" unicode="}" horiz-adv-x="278" 
d="M198 84q0 -67 -49.5 -90.5t-86.5 -23.5h-32v35h18q46 0 69 19t23 59v261q0 40 20 55.5t42 24.5v2q-22 9 -42 24.5t-20 55.5v179q0 40 -23 59t-69 19h-18v35h32q37 0 86.5 -23t49.5 -92v-178q0 -29 14.5 -46t41.5 -22v-24q-27 -5 -41.5 -22t-14.5 -46v-261z" />
    <glyph glyph-name="asciitilde" unicode="~" horiz-adv-x="500" 
d="M161 490q69 0 110 -50q40 -51 78 -51q37 0 59.5 27t22.5 73h21v-15q0 -50 -33 -82.5t-75 -32.5q-57 0 -95 51q-39 50 -88 50q-31 0 -60 -24t-29 -76h-21v15q0 41 33 78t77 37z" />
    <glyph glyph-name="copyright" unicode="&#xa9;" horiz-adv-x="807" 
d="M404 13q-149 0 -256.5 107t-107.5 256t107.5 256t256.5 107t256 -107t107 -256t-107 -256t-256 -107zM404 41q136 0 232 102t96 233t-96.5 233t-231.5 102q-137 0 -233 -102t-96 -233t97 -233t232 -102zM553 205q-22 -19 -59 -35.5t-74 -16.5q-93 0 -165.5 57t-72.5 164
t72.5 169.5t165.5 62.5q38 0 72.5 -14t53.5 -28l-15 -32q-21 22 -49.5 35t-65.5 13q-79 0 -130 -49.5t-51 -142.5q0 -119 59 -161.5t130 -42.5q43 0 73.5 13t44.5 23z" />
    <glyph glyph-name="registered" unicode="&#xae;" horiz-adv-x="500" 
d="M287 319q-97 0 -167 69.5t-70 166.5t70 167t167 70t166.5 -70t69.5 -167t-69.5 -166.5t-166.5 -69.5zM287 341q87 0 146 63.5t59 150.5q0 85 -59 149.5t-146 64.5q-85 0 -145.5 -64.5t-60.5 -149.5q0 -87 60.5 -150.5t145.5 -63.5zM371 402q-16 0 -31.5 15.5t-15.5 52.5
v23q0 51 -17 62.5t-36 11.5v11q30 0 41 17t11 47q0 31 -15 48.5t-45 17.5h-15v-303h-32v314h45q34 0 65 -18.5t31 -58.5q0 -31 -17.5 -47.5t-42.5 -21.5q23 -4 41 -20.5t18 -48.5v-39q0 -31 6.5 -42t16.5 -11q4 0 7.5 2t5.5 4l3 -2q-3 -5 -8 -9.5t-16 -4.5z" />
    <glyph glyph-name="degree" unicode="&#xb0;" horiz-adv-x="296" 
d="M148 583q-40 0 -69 29.5t-29 69.5t29 69t69 29t69 -29t29 -69t-29 -69.5t-69 -29.5zM148 600q33 0 56 24.5t23 57.5t-23 57t-56 24t-56 -24t-23 -57t23 -57.5t56 -24.5z" />
    <glyph glyph-name="paragraph" unicode="&#xb6;" horiz-adv-x="575" 
d="M342 0v740h-42q-97 0 -146 -53t-49 -128q0 -71 39 -124t113 -53h29v-25h-24q-78 0 -150 50.5t-72 151.5q0 102 78 155.5t191 53.5h186v-768h-50v740h-53v-740h-50z" />
    <glyph glyph-name="afii10023" unicode="&#x401;" horiz-adv-x="535" 
d="M477 0h-407v768h378l22 -59l-5 -3q-28 28 -53.5 32.5t-82.5 4.5h-194v-270h231q16 0 24 1.5t18 7.5l2 -1v-41l-2 -1q-10 6 -18 7.5t-24 1.5h-231v-423h199q54 0 101 7.5t75 34.5l5 -4zM340 827q-16 0 -26.5 10t-10.5 25t10.5 25t26.5 10q14 0 24.5 -10t10.5 -25
t-10.5 -25t-24.5 -10zM207 827q-14 0 -24.5 10t-10.5 25t10.5 25t24.5 10q16 0 26.5 -10t10.5 -25t-10.5 -25t-26.5 -10z" />
    <glyph glyph-name="afii10053" unicode="&#x404;" horiz-adv-x="789" 
d="M747 80q-39 -34 -105 -65q-69 -32 -162 -32q-165 0 -299 107q-133 106 -133 290q0 190 139 301q138 111 300 111q69 0 133 -20.5t114 -55.5l-27 -52q-43 57 -105 82t-128.5 23.5t-131 -27t-111.5 -71.5q-78 -77 -96 -193l413 -1q16 0 24 1.5t18 7.5l2 -1v-41l-2 -1
q-10 6 -18 7.5t-24 1.5l-416 1q-7 -57 0.5 -113.5t26 -107.5t47.5 -94t66 -72q49 -39 111.5 -53t126.5 -5.5t124 38.5t104 80z" />
    <glyph glyph-name="uni0406" unicode="&#x406;" horiz-adv-x="203" 
d="M133 768v-768h-63v768h63z" />
    <glyph glyph-name="afii10056" unicode="&#x407;" horiz-adv-x="203" 
d="M133 768v-768h-63v768h63zM170 827q-16 0 -26.5 10t-10.5 25t10.5 25t26.5 10q14 0 24.5 -10t10.5 -25t-10.5 -25t-24.5 -10zM37 827q-14 0 -24.5 10t-10.5 25t10.5 25t24.5 10q16 0 26.5 -10t10.5 -25t-10.5 -25t-26.5 -10z" />
    <glyph glyph-name="afii10062" unicode="&#x40e;" horiz-adv-x="642" 
d="M596 768h38l-399 -768h-38l112 216l-293 552h74l256 -480zM338 806q-31 0 -55 7.5t-40 20t-24.5 28t-8.5 30.5q0 12 9.5 19t20.5 7.5t20 -6t7 -21.5q0 -38 16.5 -54t54.5 -16t54.5 16t16.5 54q-2 15 7 21.5t20.5 6t21 -7.5t9.5 -19q0 -15 -8.5 -30.5t-25 -28t-40.5 -20
t-55 -7.5z" />
    <glyph glyph-name="afii10017" unicode="&#x410;" horiz-adv-x="783" 
d="M137 203l423 57l-220 443zM689 0l-113 228l-450 -52l-72 -176h-34l304 736q-4 7 -10 10.5t-14 6.5l-3 1v18l84 -6l382 -766h-74z" />
    <glyph glyph-name="afii10018" unicode="&#x411;" horiz-adv-x="558" 
d="M142 472q22 9 40.5 12.5t41.5 3.5q61 1 111.5 -18.5t87 -53t57.5 -77.5t24 -92t-15.5 -96.5t-63.5 -90.5q-82 -77 -201 -77q-17 0 -30 2t-31 6q-36 9 -67 9q-5 0 -9.5 -0.5t-9.5 -0.5v764h345l26 -67l-5 -3q-28 32 -55.5 38.5t-84.5 6.5h-161v-266zM142 32
q15 -13 31.5 -20.5t50.5 -7.5q52 0 88.5 21t59.5 55t34 77.5t12 87.5q0 45 -11.5 85t-36 70.5t-61 48.5t-85.5 18q-34 0 -50.5 -7.5t-31.5 -20.5v-407z" />
    <glyph glyph-name="afii10019" unicode="&#x412;" horiz-adv-x="558" 
d="M234 -16q-35 0 -71 8q-36 9 -67 9q-5 0 -9 -0.5t-8 -1.5l-2 1v768l2 1q8 -2 14 -3t14 -1q35 0 59 11t67 11q57 0 119 -37t62 -110q0 -52 -42 -88t-89 -49q77 2 156 -70t79 -184q0 -110 -81 -187.5t-203 -77.5zM233 766q-30 0 -52.5 -7.5t-38.5 -20.5v-705
q15 -13 36.5 -20.5t55.5 -7.5q96 0 148.5 68.5t52.5 175.5q0 119 -48 177.5t-118 58.5q-17 0 -29 -3t-23 -7l2 23q42 7 82 43t40 90q0 63 -28 99t-80 36z" />
    <glyph glyph-name="afii10020" unicode="&#x413;" horiz-adv-x="480" 
d="M135 0h-65v768h358l26 -67l-5 -3q-28 32 -55.5 38.5t-84.5 6.5h-174v-743z" />
    <glyph glyph-name="afii10021" unicode="&#x414;" horiz-adv-x="884" 
d="M137 0q-48 0 -79.5 -29.5t-58.5 -71.5l-8 4l27 126h67l331 707q-4 7 -10 7.5t-14 3.5l-3 1v18h84l320 -737h73l27 -126l-8 -4q-27 42 -58.5 71.5t-79.5 29.5h-610zM119 29h600l-287 674z" />
    <glyph glyph-name="afii10022" unicode="&#x415;" horiz-adv-x="535" 
d="M477 0h-407v768h378l22 -59l-5 -3q-28 28 -53.5 32.5t-82.5 4.5h-194v-270h231q16 0 24 1.5t18 7.5l2 -1v-41l-2 -1q-10 6 -18 7.5t-24 1.5h-231v-423h199q54 0 101 7.5t75 34.5l5 -4z" />
    <glyph glyph-name="afii10024" unicode="&#x416;" horiz-adv-x="755" 
d="M352 487q-10 9 -23 13t-28 4q-34 0 -69.5 -41t-35.5 -171v-109q0 -112 -35.5 -151.5t-78.5 -39.5q-22 0 -39 8t-34 28l6 6q12 -12 23 -16t22 -4q22 0 46.5 38t24.5 149v86q0 131 56 187q48 48 98 48q9 0 18 -2l-190 243v5h43l196 -257v257h65v-257l196 257h43v-5
l-190 -243q9 2 18 2q50 0 98 -48q56 -56 56 -187v-86q0 -111 24.5 -149t46.5 -38q11 0 22 4t23 16l6 -6q-17 -20 -34 -28t-39 -8q-43 0 -78.5 39.5t-35.5 151.5v109q0 130 -35.5 171t-69.5 41q-15 0 -28 -4t-23 -13v-487h-65v487z" />
    <glyph glyph-name="afii10025" unicode="&#x417;" horiz-adv-x="555" 
d="M232 451q44 -4 82.5 6t65.5 43q30 36 38 82.5t-4 88.5t-43 71t-79 29q-63 0 -106.5 -37.5t-57.5 -102.5l-54 39q43 64 102 92.5t120 25.5q59 -3 102 -26t67.5 -57.5t30 -75t-9.5 -78.5t-51 -68t-95 -43q45 -6 81.5 -28t61 -54.5t37 -72t11 -80t-18 -80.5t-49.5 -72
q-71 -70 -192 -70q-38 0 -80.5 13.5t-78 37.5t-59 57.5t-23.5 74.5q0 51 26 75q25 25 51 25q12 0 22 -5.5t11 -13.5q-19 -10 -27.5 -27.5t-8.5 -49.5q0 -36 10.5 -66t31.5 -52.5t52 -35t73 -12.5q98 0 136 66q18 31 27.5 71.5t9.5 82.5t-11 81.5t-34 68.5q-29 36 -73.5 48
t-93.5 6v23z" />
    <glyph glyph-name="afii10026" unicode="&#x418;" 
d="M135 0h-65v768h65v-645l392 559v86h65v-768h-65v641l-392 -560v-81z" />
    <glyph glyph-name="afii10027" unicode="&#x419;" 
d="M135 0h-65v768h65v-645l392 559v86h65v-768h-65v641l-392 -560v-81zM335 806q-31 0 -55 7.5t-40 20t-24.5 28t-8.5 30.5q0 12 9.5 19t20.5 7.5t20 -6t7 -21.5q0 -38 16.5 -54t54.5 -16t54.5 16t16.5 54q-2 15 7 21.5t20.5 6t21 -7.5t9.5 -19q0 -15 -8.5 -30.5t-25 -28
t-40.5 -20t-55 -7.5z" />
    <glyph glyph-name="afii10028" unicode="&#x41a;" horiz-adv-x="473" 
d="M405 -8q-43 0 -78.5 39.5t-35.5 151.5v109q0 130 -35.5 171t-69.5 41q-15 0 -28 -4t-23 -13v-487h-65v768h65v-257l196 257h43v-5l-190 -243q9 2 18 2q50 0 98 -48q56 -56 56 -187v-86q0 -111 24.5 -149t46.5 -38q11 0 22 4t23 16l6 -6q-17 -20 -34 -28t-39 -8z" />
    <glyph glyph-name="afii10029" unicode="&#x41b;" horiz-adv-x="783" 
d="M340 703l-286 -703h-34l304 736q-4 7 -10 10.5t-14 6.5l-3 1v18l84 -6l382 -766h-74z" />
    <glyph glyph-name="afii10030" unicode="&#x41c;" horiz-adv-x="816" 
d="M70 0v768h34l309 -463l309 463h24v-768h-65v649l-284 -424h-4l-287 426v-651h-36z" />
    <glyph glyph-name="afii10031" unicode="&#x41d;" 
d="M70 0v768h65v-274h392v274h65v-768h-65v470h-392v-470h-65z" />
    <glyph glyph-name="afii10032" unicode="&#x41e;" horiz-adv-x="956" 
d="M51 386q-1 172 134.5 289t292.5 117q158 0 293.5 -116.5t135.5 -289.5q0 -175 -135.5 -291t-293.5 -116q-157 0 -292 116.5t-135 290.5zM136 387q0 -169 98 -277.5t244 -108.5q147 0 245.5 108t98.5 277q0 168 -98.5 276t-245.5 108q-146 0 -244.5 -108.5t-97.5 -274.5z
" />
    <glyph glyph-name="afii10033" unicode="&#x41f;" 
d="M70 0v768h522v-768h-65v744h-392v-744h-65z" />
    <glyph glyph-name="afii10034" unicode="&#x420;" horiz-adv-x="475" 
d="M135 0h-65v768l2 1q8 -2 14.5 -3t14.5 -1q37 0 64 11t76 11q78 0 151 -58.5t73 -157.5q0 -117 -83 -168t-147 -51q-22 0 -37.5 3.5t-21.5 7.5l5 12q7 -2 19 -5t35 -3q59 0 105.5 53t46.5 151q0 84 -44.5 140t-110.5 56q-32 0 -56.5 -8.5t-40.5 -18.5v-740z" />
    <glyph glyph-name="afii10035" unicode="&#x421;" horiz-adv-x="789" 
d="M749 80q-37 -33 -105 -65t-162 -32q-166 0 -299 107t-133 290q0 190 138.5 301t300.5 111q85 0 149 -25.5t98 -50.5l-27 -52q-38 42 -91 73.5t-140 31.5q-143 1 -245 -98t-102 -267q0 -210 120 -297t252 -87q86 0 148.5 27t88.5 45z" />
    <glyph glyph-name="afii10036" unicode="&#x422;" horiz-adv-x="545" 
d="M310 744h-6v-744h-63v744h-6q-47 0 -111 -6t-90 -24l-4 3l25 51h435l25 -51l-4 -3q-26 18 -90 24t-111 6z" />
    <glyph glyph-name="afii10037" unicode="&#x423;" horiz-adv-x="642" 
d="M596 768h38l-399 -768h-38l112 216l-293 552h74l256 -480z" />
    <glyph glyph-name="afii10038" unicode="&#x424;" horiz-adv-x="791" 
d="M363 207q-7 -2 -13.5 -3.5t-12.5 -3.5q-28 -11 -76 -11q-77 0 -151 59q-36 29 -54.5 76t-18.5 98t18 98.5t56 77.5q74 59 151 59q48 0 76 -11l12 -4t13 -4v130h63v-130q7 2 13 4l12 4q28 11 76 11q77 0 151 -59q37 -30 55.5 -77.5t18.5 -98.5t-18.5 -98t-54.5 -76
q-74 -59 -151 -59q-48 0 -76 11q-6 2 -12.5 3.5t-13.5 3.5v-207h-63v207zM519 209q66 0 110 56q22 28 33.5 70t11.5 87t-11.5 87.5t-34.5 71.5q-44 56 -110 56q-30 0 -53 -7.5t-39 -16.5v-380q16 -9 39 -16.5t54 -7.5zM270 209q31 0 54 7.5t39 16.5v380q-16 9 -39 16.5
t-53 7.5q-66 0 -110 -56q-23 -29 -34.5 -71.5t-11.5 -87.5t11 -87t34 -70q44 -56 110 -56z" />
    <glyph glyph-name="afii10039" unicode="&#x425;" horiz-adv-x="697" 
d="M40 0l292 397l-249 371h74l218 -325l236 325h40l-258 -352l279 -416h-74l-248 369l-270 -369h-40z" />
    <glyph glyph-name="afii10040" unicode="&#x426;" horiz-adv-x="718" 
d="M70 0v768h65v-738h392v738h65v-739h93l27 -126l-8 -4q-27 42 -60 71.5t-81 29.5h-493z" />
    <glyph glyph-name="afii10041" unicode="&#x427;" horiz-adv-x="615" 
d="M564 768v-768h-63v392q-33 -29 -83 -44t-107 -15q-76 0 -125 24t-77 67t-38.5 103.5t-10.5 133.5v106h65v-127q0 -149 45.5 -216t149.5 -67q26 0 51 3.5t48 12t43.5 23.5t38.5 38v334h63z" />
    <glyph glyph-name="afii10042" unicode="&#x428;" horiz-adv-x="1112" 
d="M69 768h65v-738h392v738h65v-738h392v738h65v-768h-979v768z" />
    <glyph glyph-name="afii10043" unicode="&#x429;" horiz-adv-x="1174" 
d="M69 768h65v-738h392v738h65v-738h392v738h65v-739h93l27 -126l-8 -4q-27 42 -60 71.5t-81 29.5h-950v768z" />
    <glyph glyph-name="afii10044" unicode="&#x42a;" horiz-adv-x="730" 
d="M297 473q22 9 49.5 12.5t50.5 3.5q61 1 112.5 -18.5t89.5 -53t60 -77.5t25 -92t-15.5 -96.5t-63.5 -90.5q-41 -38 -94 -57.5t-114 -19.5q-17 0 -39 2t-40 6q-36 9 -67 9q-5 0 -9 -0.5t-8 -1.5l-2 1v738h-46q-57 0 -84.5 -6.5t-55.5 -38.5l-5 3l26 67h230v-290zM297 33
q15 -13 40.5 -20.5t59.5 -7.5q52 0 89.5 21t62 55t36.5 77.5t13 87.5q0 45 -13 85t-38.5 70.5t-63 48.5t-86.5 18q-34 0 -59.5 -7.5t-40.5 -20.5v-407z" />
    <glyph glyph-name="afii10045" unicode="&#x42b;" horiz-adv-x="724" 
d="M134 763h-65v-763l2 -1q4 1 8 1.5t9 0.5q31 0 67 -9q18 -4 40 -6t39 -2q61 0 114 19.5t94 57.5q45 42 63.5 90.5t15.5 96.5t-25 92t-60 77.5t-89.5 53t-112.5 18.5q-23 0 -50.5 -3.5t-49.5 -12.5v290zM134 440q15 13 40.5 20.5t59.5 7.5q49 0 86.5 -18t63 -48.5
t38.5 -70.5t13 -85q-1 -44 -13 -87.5t-36.5 -77.5t-62 -55t-89.5 -21q-34 0 -59.5 7.5t-40.5 20.5v407zM654 768v-768h-63v768h63z" />
    <glyph glyph-name="afii10046" unicode="&#x42c;" horiz-adv-x="571" 
d="M138 473q22 9 49.5 12.5t50.5 3.5q61 1 112.5 -18.5t89.5 -53t60 -77.5t25 -92t-15.5 -96.5t-63.5 -90.5q-41 -38 -94 -57.5t-114 -19.5q-17 0 -39 2t-40 6q-36 9 -67 9q-5 0 -9 -0.5t-8 -1.5l-2 1v763h65v-290zM138 33q15 -13 40.5 -20.5t59.5 -7.5q52 0 89.5 21t62 55
t36.5 77.5t13 87.5q0 45 -13 85t-38.5 70.5t-63 48.5t-86.5 18q-34 0 -59.5 -7.5t-40.5 -20.5v-407z" />
    <glyph glyph-name="afii10047" unicode="&#x42d;" horiz-adv-x="789" 
d="M85 247q25 25 51 25q12 0 22 -5.5t11 -13.5q-19 -10 -27.5 -27.5t-8.5 -49.5q0 -47 19 -80t50.5 -55t71 -32t81.5 -10q93 0 154.5 39.5t96.5 103.5t46 145.5t4 165.5l-408 -1q-16 0 -24 -1.5t-18 -7.5l-2 1v41l2 1q10 -6 18 -7.5t24 -1.5l405 1q-8 63 -31 116.5t-60 92.5
t-87 61t-112 22q-65 0 -124 -25.5t-101 -80.5l-27 52q50 35 114 55.5t133 20.5q82 0 152 -31t121 -86t80 -129.5t29 -161.5q0 -89 -28 -163t-79 -128t-123 -84.5t-159 -32.5q-41 0 -91.5 11.5t-95 35.5t-75 61t-30.5 88t26 75z" />
    <glyph glyph-name="afii10048" unicode="&#x42e;" horiz-adv-x="1170" 
d="M239 386q-1 44 8 84h-112v-470h-65v768h65v-274h118q30 103 120 181q136 117 293 117q158 0 293.5 -116.5t135.5 -289.5q0 -175 -135.5 -291t-293.5 -116q-157 0 -292 116.5t-135 290.5zM324 387q0 -169 98 -277.5t244 -108.5q147 0 245.5 108t98.5 277q0 168 -98.5 276
t-245.5 108q-146 0 -244.5 -108.5t-97.5 -274.5z" />
    <glyph glyph-name="afii10049" unicode="&#x42f;" horiz-adv-x="521" 
d="M84 -8q-22 0 -40 9.5t-31 26.5l6 6q12 -12 23.5 -16t23.5 -4q28 0 50 39t22 155v66q0 125 59.5 173t103.5 52q-28 7 -92 45.5t-64 100.5q0 60 52.5 101t120.5 41q43 0 65 -11t56 -11q8 0 14 1t14 3l2 -1v-768h-65v742q-17 11 -35.5 18.5t-44.5 7.5q-47 0 -76.5 -34
t-29.5 -89q0 -68 45.5 -103t97.5 -44l2 -23q-10 6 -19 8t-19 2q-33 0 -77.5 -41.5t-44.5 -169.5v-78q0 -101 -35.5 -152.5t-83.5 -51.5z" />
    <glyph glyph-name="afii10065" unicode="&#x430;" horiz-adv-x="783" 
d="M137 203l423 57l-220 443zM689 0l-113 228l-450 -52l-72 -176h-34l304 736q-4 7 -10 10.5t-14 6.5l-3 1v18l84 -6l382 -766h-74z" />
    <glyph glyph-name="afii10066" unicode="&#x431;" horiz-adv-x="558" 
d="M142 472q22 9 40.5 12.5t41.5 3.5q61 1 111.5 -18.5t87 -53t57.5 -77.5t24 -92t-15.5 -96.5t-63.5 -90.5q-82 -77 -201 -77q-17 0 -30 2t-31 6q-36 9 -67 9q-5 0 -9.5 -0.5t-9.5 -0.5v764h345l26 -67l-5 -3q-28 32 -55.5 38.5t-84.5 6.5h-161v-266zM142 32
q15 -13 31.5 -20.5t50.5 -7.5q52 0 88.5 21t59.5 55t34 77.5t12 87.5q0 45 -11.5 85t-36 70.5t-61 48.5t-85.5 18q-34 0 -50.5 -7.5t-31.5 -20.5v-407z" />
    <glyph glyph-name="afii10067" unicode="&#x432;" horiz-adv-x="558" 
d="M234 -16q-35 0 -71 8q-36 9 -67 9q-5 0 -9 -0.5t-8 -1.5l-2 1v768l2 1q8 -2 14 -3t14 -1q35 0 59 11t67 11q57 0 119 -37t62 -110q0 -52 -42 -88t-89 -49q77 2 156 -70t79 -184q0 -110 -81 -187.5t-203 -77.5zM233 766q-30 0 -52.5 -7.5t-38.5 -20.5v-705
q15 -13 36.5 -20.5t55.5 -7.5q96 0 148.5 68.5t52.5 175.5q0 119 -48 177.5t-118 58.5q-17 0 -29 -3t-23 -7l2 23q42 7 82 43t40 90q0 63 -28 99t-80 36z" />
    <glyph glyph-name="afii10068" unicode="&#x433;" horiz-adv-x="480" 
d="M135 0h-65v768h358l26 -67l-5 -3q-28 32 -55.5 38.5t-84.5 6.5h-174v-743z" />
    <glyph glyph-name="afii10069" unicode="&#x434;" horiz-adv-x="613" 
d="M509 765v-736h65l27 -126l-8 -4q-26 42 -56.5 70.5t-76.5 30.5h-304q-48 0 -79.5 -29.5t-58.5 -71.5l-8 4l27 126h63q29 32 53 85.5t44 118t35.5 136t25.5 139.5t14.5 127.5t3.5 101.5q-29 -2 -47 -6q-27 -6 -55 -38l-5 3l26 69h314zM307 738q-3 -110 -18.5 -219.5
t-38.5 -205.5t-52.5 -170.5t-62.5 -113.5h311v709h-132h-7z" />
    <glyph glyph-name="afii10070" unicode="&#x435;" horiz-adv-x="535" 
d="M477 0h-407v768h378l22 -59l-5 -3q-28 28 -53.5 32.5t-82.5 4.5h-194v-270h231q16 0 24 1.5t18 7.5l2 -1v-41l-2 -1q-10 6 -18 7.5t-24 1.5h-231v-423h199q54 0 101 7.5t75 34.5l5 -4z" />
    <glyph glyph-name="afii10072" unicode="&#x436;" horiz-adv-x="755" 
d="M352 487q-10 9 -23 13t-28 4q-34 0 -69.5 -41t-35.5 -171v-109q0 -112 -35.5 -151.5t-78.5 -39.5q-22 0 -39 8t-34 28l6 6q12 -12 23 -16t22 -4q22 0 46.5 38t24.5 149v86q0 131 56 187q48 48 98 48q9 0 18 -2l-190 243v5h43l196 -257v257h65v-257l196 257h43v-5
l-190 -243q9 2 18 2q50 0 98 -48q56 -56 56 -187v-86q0 -111 24.5 -149t46.5 -38q11 0 22 4t23 16l6 -6q-17 -20 -34 -28t-39 -8q-43 0 -78.5 39.5t-35.5 151.5v109q0 130 -35.5 171t-69.5 41q-15 0 -28 -4t-23 -13v-487h-65v487z" />
    <glyph glyph-name="afii10073" unicode="&#x437;" horiz-adv-x="555" 
d="M232 451q44 -4 82.5 6t65.5 43q30 36 38 82.5t-4 88.5t-43 71t-79 29q-63 0 -106.5 -37.5t-57.5 -102.5l-54 39q43 64 102 92.5t120 25.5q59 -3 102 -26t67.5 -57.5t30 -75t-9.5 -78.5t-51 -68t-95 -43q45 -6 81.5 -28t61 -54.5t37 -72t11 -80t-18 -80.5t-49.5 -72
q-71 -70 -192 -70q-101 0 -171 60t-70 123q0 51 26 75q25 25 51 25q12 0 22 -5.5t11 -13.5q-19 -10 -27.5 -27.5t-8.5 -49.5q0 -51 34 -109q34 -57 133 -57q98 0 136 66q18 31 27.5 71.5t9.5 82.5t-11 81.5t-34 68.5q-29 36 -73.5 48t-93.5 6v23z" />
    <glyph glyph-name="afii10074" unicode="&#x438;" 
d="M135 0h-65v768h65v-645l392 559v86h65v-768h-65v641l-392 -560v-81z" />
    <glyph glyph-name="afii10075" unicode="&#x439;" 
d="M135 0h-65v768h65v-645l392 559v86h65v-768h-65v641l-392 -560v-81zM335 806q-31 0 -55 7.5t-40 20t-24.5 28t-8.5 30.5q0 12 9.5 19t20.5 7.5t20 -6t7 -21.5q0 -38 16.5 -54t54.5 -16t54.5 16t16.5 54q-2 15 7 21.5t20.5 6t21 -7.5t9.5 -19q0 -15 -8.5 -30.5t-25 -28
t-40.5 -20t-55 -7.5z" />
    <glyph glyph-name="afii10076" unicode="&#x43a;" horiz-adv-x="473" 
d="M405 -8q-43 0 -78.5 39.5t-35.5 151.5v109q0 130 -35.5 171t-69.5 41q-15 0 -28 -4t-23 -13v-487h-65v768h65v-257l196 257h43v-5l-190 -243q9 2 18 2q50 0 98 -48q56 -56 56 -187v-86q0 -111 24.5 -149t46.5 -38q11 0 22 4t23 16l6 -6q-17 -20 -34 -28t-39 -8z" />
    <glyph glyph-name="afii10077" unicode="&#x43b;" horiz-adv-x="555" 
d="M3 45q37 0 69.5 23.5t58.5 71.5q28 51 49 120.5t35 148.5t22 163.5t10 164.5q-32 -1 -55 -6q-32 -6 -60 -38l-5 3l26 67l331 1v-764h-63v738h-146h-6q0 -82 -7 -164.5t-20.5 -160.5t-33 -148.5t-44.5 -127.5t-56 -98t-66 -59z" />
    <glyph glyph-name="afii10078" unicode="&#x43c;" horiz-adv-x="816" 
d="M70 0v768h34l309 -463l309 463h24v-768h-65v649l-284 -424h-4l-287 426v-651h-36z" />
    <glyph glyph-name="afii10079" unicode="&#x43d;" 
d="M70 0v768h65v-274h392v274h65v-768h-65v470h-392v-470h-65z" />
    <glyph glyph-name="afii10080" unicode="&#x43e;" horiz-adv-x="956" 
d="M51 386q-1 172 134.5 289t292.5 117q158 0 293.5 -116.5t135.5 -289.5q0 -175 -135.5 -291t-293.5 -116q-157 0 -292 116.5t-135 290.5zM136 387q0 -169 98 -277.5t244 -108.5q147 0 245.5 108t98.5 277q0 168 -98.5 276t-245.5 108q-146 0 -244.5 -108.5t-97.5 -274.5z
" />
    <glyph glyph-name="afii10081" unicode="&#x43f;" 
d="M70 0v768h522v-768h-65v744h-392v-744h-65z" />
    <glyph glyph-name="afii10082" unicode="&#x440;" horiz-adv-x="475" 
d="M135 0h-65v768l2 1q8 -2 14.5 -3t14.5 -1q37 0 64 11t76 11q78 0 151 -58.5t73 -157.5q0 -117 -83 -168t-147 -51q-22 0 -37.5 3.5t-21.5 7.5l5 12q7 -2 19 -5t35 -3q59 0 105.5 53t46.5 151q0 84 -44.5 140t-110.5 56q-32 0 -56.5 -8.5t-40.5 -18.5v-740z" />
    <glyph glyph-name="afii10083" unicode="&#x441;" horiz-adv-x="789" 
d="M749 80q-37 -33 -105 -65t-162 -32q-166 0 -299 107t-133 290q0 190 138.5 301t300.5 111q85 0 149 -25.5t98 -50.5l-27 -52q-38 42 -91 73.5t-140 31.5q-143 1 -245 -98t-102 -267q0 -210 120 -297t252 -87q86 0 148.5 27t88.5 45z" />
    <glyph glyph-name="afii10084" unicode="&#x442;" horiz-adv-x="545" 
d="M310 744h-6v-744h-63v744h-6q-47 0 -111 -6t-90 -24l-4 3l25 51h435l25 -51l-4 -3q-26 18 -90 24t-111 6z" />
    <glyph glyph-name="afii10085" unicode="&#x443;" horiz-adv-x="642" 
d="M596 768h38l-399 -768h-38l112 216l-293 552h74l256 -480z" />
    <glyph glyph-name="afii10086" unicode="&#x444;" horiz-adv-x="791" 
d="M363 669q-60 0 -104 -22t-73 -58.5t-44 -83.5t-18 -98q-3 -56 10 -109t42 -94t75.5 -66.5t111.5 -26.5v558zM426 111q65 1 111.5 26.5t76.5 66.5t43 94t10 109q-3 51 -18.5 98t-45 83.5t-73.5 58.5t-104 22v-558zM363 0v85q-70 2 -130 25.5t-103.5 63.5t-68.5 94.5
t-25 119.5q-1 65 24 120t69.5 95.5t104.5 64t129 23.5v77h63v-77q68 0 127.5 -23t104 -63.5t70 -96t24.5 -120.5q0 -65 -24.5 -119.5t-68 -94.5t-103.5 -63.5t-130 -25.5v-85h-63z" />
    <glyph glyph-name="afii10087" unicode="&#x445;" horiz-adv-x="697" 
d="M40 0l292 397l-249 371h74l218 -325l236 325h40l-258 -352l279 -416h-74l-248 369l-270 -369h-40z" />
    <glyph glyph-name="afii10088" unicode="&#x446;" horiz-adv-x="718" 
d="M70 0v768h65v-738h392v738h65v-739h93l27 -126l-8 -4q-27 42 -60 71.5t-81 29.5h-493z" />
    <glyph glyph-name="afii10089" unicode="&#x447;" horiz-adv-x="615" 
d="M564 768v-768h-63v392q-33 -29 -83 -44t-107 -15q-76 0 -125 24t-77 67t-38.5 103.5t-10.5 133.5v106h65v-127q0 -149 45.5 -216t149.5 -67q26 0 51 3.5t48 12t43.5 23.5t38.5 38v334h63z" />
    <glyph glyph-name="afii10090" unicode="&#x448;" horiz-adv-x="1112" 
d="M69 768h65v-738h392v738h65v-738h392v738h65v-768h-979v768z" />
    <glyph glyph-name="afii10091" unicode="&#x449;" horiz-adv-x="1174" 
d="M69 768h65v-738h392v738h65v-738h392v738h65v-739h93l27 -126l-8 -4q-27 42 -60 71.5t-81 29.5h-950v768z" />
    <glyph glyph-name="afii10092" unicode="&#x44a;" horiz-adv-x="730" 
d="M297 473q22 9 49.5 12.5t50.5 3.5q61 1 112.5 -18.5t89.5 -53t60 -77.5t25 -92t-15.5 -96.5t-63.5 -90.5q-41 -38 -94 -57.5t-114 -19.5q-17 0 -39 2t-40 6q-36 9 -67 9q-5 0 -9 -0.5t-8 -1.5l-2 1v738h-46q-57 0 -84.5 -6.5t-55.5 -38.5l-5 3l26 67h230v-290zM297 33
q15 -13 40.5 -20.5t59.5 -7.5q52 0 89.5 21t62 55t36.5 77.5t13 87.5q0 45 -13 85t-38.5 70.5t-63 48.5t-86.5 18q-34 0 -59.5 -7.5t-40.5 -20.5v-407z" />
    <glyph glyph-name="afii10093" unicode="&#x44b;" horiz-adv-x="724" 
d="M134 763h-65v-763l2 -1q4 1 8 1.5t9 0.5q31 0 67 -9q18 -4 40 -6t39 -2q61 0 114 19.5t94 57.5q45 42 63.5 90.5t15.5 96.5t-25 92t-60 77.5t-89.5 53t-112.5 18.5q-23 0 -50.5 -3.5t-49.5 -12.5v290zM134 440q15 13 40.5 20.5t59.5 7.5q49 0 86.5 -18t63 -48.5
t38.5 -70.5t13 -85q-1 -44 -13 -87.5t-36.5 -77.5t-62 -55t-89.5 -21q-34 0 -59.5 7.5t-40.5 20.5v407zM654 768v-768h-63v768h63z" />
    <glyph glyph-name="afii10094" unicode="&#x44c;" horiz-adv-x="571" 
d="M138 473q22 9 49.5 12.5t50.5 3.5q61 1 112.5 -18.5t89.5 -53t60 -77.5t25 -92t-15.5 -96.5t-63.5 -90.5q-41 -38 -94 -57.5t-114 -19.5q-17 0 -39 2t-40 6q-36 9 -67 9q-5 0 -9 -0.5t-8 -1.5l-2 1v763h65v-290zM138 33q15 -13 40.5 -20.5t59.5 -7.5q52 0 89.5 21t62 55
t36.5 77.5t13 87.5q0 45 -13 85t-38.5 70.5t-63 48.5t-86.5 18q-34 0 -59.5 -7.5t-40.5 -20.5v-407z" />
    <glyph glyph-name="afii10095" unicode="&#x44d;" horiz-adv-x="789" 
d="M58 126q44 -50 104 -80t124 -38.5t126.5 5.5t111.5 53q37 29 66 72t47.5 94t26 107.5t0.5 113.5l-416 -1q-16 0 -24 -1.5t-18 -7.5l-2 1v41l2 1q10 -6 18 -7.5t24 -1.5l413 1q-5 63 -31 115.5t-67 91t-94 60.5t-112 25q-69 3 -132 -22t-109 -84l-27 52q50 35 114 55.5
t133 20.5q85 0 160 -30.5t131 -85t88.5 -130.5t32.5 -166q0 -184 -133 -290q-134 -107 -299 -107q-93 0 -162 32q-66 31 -105 65z" />
    <glyph glyph-name="afii10096" unicode="&#x44e;" horiz-adv-x="1170" 
d="M239 386q-1 44 8 84h-112v-470h-65v768h65v-274h118q30 103 120 181q136 117 293 117q158 0 293.5 -116.5t135.5 -289.5q0 -175 -135.5 -291t-293.5 -116q-157 0 -292 116.5t-135 290.5zM324 387q0 -169 98 -277.5t244 -108.5q147 0 245.5 108t98.5 277q0 168 -98.5 276
t-245.5 108q-146 0 -244.5 -108.5t-97.5 -274.5z" />
    <glyph glyph-name="afii10097" unicode="&#x44f;" horiz-adv-x="521" 
d="M84 -8q-22 0 -40 9.5t-31 26.5l6 6q12 -12 23.5 -16t23.5 -4q28 0 50 39t22 155v66q0 125 59.5 173t103.5 52q-28 7 -92 45.5t-64 100.5q0 60 52.5 101t120.5 41q43 0 65 -11t56 -11q8 0 14 1t14 3l2 -1v-768h-65v742q-17 11 -35.5 18.5t-44.5 7.5q-47 0 -76.5 -34
t-29.5 -89q0 -68 45.5 -103t97.5 -44l2 -23q-10 6 -19 8t-19 2q-33 0 -77.5 -41.5t-44.5 -169.5v-78q0 -101 -35.5 -152.5t-83.5 -51.5z" />
    <glyph glyph-name="afii10071" unicode="&#x451;" horiz-adv-x="535" 
d="M477 0h-407v768h378l22 -59l-5 -3q-28 28 -53.5 32.5t-82.5 4.5h-194v-270h231q16 0 24 1.5t18 7.5l2 -1v-41l-2 -1q-10 6 -18 7.5t-24 1.5h-231v-423h199q54 0 101 7.5t75 34.5l5 -4zM340 827q-16 0 -26.5 10t-10.5 25t10.5 25t26.5 10q14 0 24.5 -10t10.5 -25
t-10.5 -25t-24.5 -10zM207 827q-14 0 -24.5 10t-10.5 25t10.5 25t24.5 10q16 0 26.5 -10t10.5 -25t-10.5 -25t-26.5 -10z" />
    <glyph glyph-name="afii10101" unicode="&#x454;" horiz-adv-x="789" 
d="M699 247q26 -24 26 -75q0 -34 -14 -62t-37.5 -49.5t-54 -37.5t-63 -26.5t-64.5 -15.5t-59 -5q-87 2 -159 32.5t-123 84.5t-79 128t-28 163q0 87 28.5 161.5t79.5 129.5t121 86t153 31q69 0 133 -20.5t114 -55.5l-27 -52q-42 55 -101 80.5t-124 25.5q-62 0 -112 -22
t-87 -61t-60 -92.5t-31 -116.5l405 -1q16 0 24 1.5t18 7.5l2 -1v-41l-2 -1q-10 6 -18 7.5t-24 1.5l-408 1q-8 -84 3.5 -165.5t46.5 -145.5t96.5 -103.5t154.5 -39.5q42 0 81.5 10t71 32t50.5 55t19 80q0 32 -8.5 49.5t-27.5 27.5q1 8 11 13.5t22 5.5q26 0 51 -25z" />
    <glyph glyph-name="afii10103" unicode="&#x456;" horiz-adv-x="203" 
d="M133 768v-768h-63v768h63z" />
    <glyph glyph-name="afii10104" unicode="&#x457;" horiz-adv-x="203" 
d="M133 768v-768h-63v768h63zM170 827q-16 0 -26.5 10t-10.5 25t10.5 25t26.5 10q14 0 24.5 -10t10.5 -25t-10.5 -25t-24.5 -10zM37 827q-14 0 -24.5 10t-10.5 25t10.5 25t24.5 10q16 0 26.5 -10t10.5 -25t-10.5 -25t-26.5 -10z" />
    <glyph glyph-name="afii10110" unicode="&#x45e;" horiz-adv-x="642" 
d="M596 768h38l-399 -768h-38l112 216l-293 552h74l256 -480zM338 806q-31 0 -55 7.5t-40 20t-24.5 28t-8.5 30.5q0 12 9.5 19t20.5 7.5t20 -6t7 -21.5q0 -38 16.5 -54t54.5 -16t54.5 16t16.5 54q-2 15 7 21.5t20.5 6t21 -7.5t9.5 -19q0 -15 -8.5 -30.5t-25 -28t-40.5 -20
t-55 -7.5z" />
    <glyph glyph-name="afii10146" unicode="&#x462;" horiz-adv-x="958" 
d="M135 744v-744h-65v768h450v-290q22 9 49.5 12.5t50.5 3.5q61 1 112.5 -18.5t89.5 -53t60 -77.5t25 -92t-15.5 -96.5t-63.5 -90.5q-41 -38 -94 -57.5t-114 -19.5q-17 0 -39 2t-40 6q-36 9 -67 9q-5 0 -9 -0.5t-8 -1.5l-2 1v739h-320zM520 38q15 -13 40.5 -20.5t59.5 -7.5
q52 0 89.5 21t62 55t36.5 77.5t13 87.5q0 45 -13 85t-38.5 70.5t-63 48.5t-86.5 18q-34 0 -59.5 -7.5t-40.5 -20.5v-407z" />
    <glyph glyph-name="afii10194" unicode="&#x463;" horiz-adv-x="692" 
d="M194 668v95h65v-95h153l26 -67l-5 -3q-28 32 -55.5 38.5t-84.5 6.5h-34v-170q22 9 49.5 12.5t50.5 3.5q61 1 112.5 -18.5t89.5 -53t60 -77.5t25 -92t-15.5 -96.5t-63.5 -90.5q-41 -38 -94 -57.5t-114 -19.5q-17 0 -39 2t-40 6q-36 9 -67 9q-5 0 -9 -0.5t-8 -1.5l-2 1v643
h-34q-57 0 -84.5 -6.5t-55.5 -38.5l-5 3l26 67h153zM259 33q15 -13 40.5 -20.5t59.5 -7.5q52 0 89.5 21t62 55t36.5 77.5t13 87.5q0 45 -13 85t-38.5 70.5t-63 48.5t-86.5 18q-34 0 -59.5 -7.5t-40.5 -20.5v-407z" />
    <glyph glyph-name="afii10050" unicode="&#x490;" horiz-adv-x="470" 
d="M406 743h-271v-743h-65v768h217q48 0 79.5 18.5t58.5 60.5l8 -4z" />
    <glyph glyph-name="afii10098" unicode="&#x491;" horiz-adv-x="470" 
d="M406 743h-271v-743h-65v768h217q48 0 79.5 18.5t58.5 60.5l8 -4z" />
    <glyph glyph-name="endash" unicode="&#x2013;" horiz-adv-x="450" 
d="M420 396v-28h-390v28h390z" />
    <glyph glyph-name="emdash" unicode="&#x2014;" horiz-adv-x="750" 
d="M720 396v-28h-690v28h690z" />
    <glyph glyph-name="quoteleft" unicode="&#x2018;" horiz-adv-x="180" 
d="M160 789l10 -12q-35 -29 -62.5 -73.5t-33.5 -76.5q22 -2 34.5 -13t12.5 -33q0 -19 -13.5 -32t-32.5 -13t-32 13t-13 38q0 28 16.5 64.5t39.5 65.5q31 39 47.5 52t26.5 20z" />
    <glyph glyph-name="quoteright" unicode="&#x2019;" horiz-adv-x="180" 
d="M20 526l-10 12q35 29 62.5 73.5t33.5 76.5q-22 2 -34.5 13t-12.5 33q0 19 13.5 32t32.5 13t32 -13t13 -38q0 -28 -16.5 -64.5t-39.5 -65.5q-31 -39 -47.5 -52t-26.5 -20z" />
    <glyph glyph-name="quotedblleft" unicode="&#x201c;" horiz-adv-x="311" 
d="M160 789l10 -12q-35 -29 -62.5 -73.5t-33.5 -76.5q22 -2 34.5 -13t12.5 -33q0 -19 -13.5 -32t-32.5 -13t-32 13t-13 38q0 28 16.5 64.5t39.5 65.5q31 39 47.5 52t26.5 20zM291 789l10 -12q-35 -29 -62.5 -73.5t-33.5 -76.5q22 -2 34.5 -13t12.5 -33q0 -19 -13.5 -32
t-32.5 -13t-32 13t-13 38q0 28 16.5 64.5t39.5 65.5q31 39 47.5 52t26.5 20z" />
    <glyph glyph-name="quotedblright" unicode="&#x201d;" horiz-adv-x="311" 
d="M20 526l-10 12q35 29 62.5 73.5t33.5 76.5q-22 2 -34.5 13t-12.5 33q0 19 13.5 32t32.5 13t32 -13t13 -38q0 -28 -16.5 -64.5t-39.5 -65.5q-31 -39 -47.5 -52t-26.5 -20zM151 526l-10 12q35 29 62.5 73.5t33.5 76.5q-22 2 -34.5 13t-12.5 33q0 19 13.5 32t32.5 13t32 -13
t13 -38q0 -28 -16.5 -64.5t-39.5 -65.5q-31 -39 -47.5 -52t-26.5 -20z" />
    <glyph glyph-name="quotedblbase" unicode="&#x201e;" horiz-adv-x="291" 
d="M131 -164l-10 12q35 29 62.5 73.5t33.5 76.5q-22 2 -34.5 13t-12.5 33q0 19 13.5 32t32.5 13t32 -13t13 -38q0 -28 -16.5 -64.5t-39.5 -65.5q-31 -39 -47.5 -52t-26.5 -20zM0 -164l-10 12q35 29 62.5 73.5t33.5 76.5q-22 2 -34.5 13t-12.5 33q0 19 13.5 32t32.5 13
t32 -13t13 -38q0 -28 -16.5 -64.5t-39.5 -65.5q-31 -39 -47.5 -52t-26.5 -20z" />
    <glyph glyph-name="bullet" unicode="&#x2022;" horiz-adv-x="198" 
d="M99 331q-28 0 -48.5 20.5t-20.5 48.5t20.5 49t48.5 21t48.5 -21t20.5 -49t-20.5 -48.5t-48.5 -20.5z" />
    <glyph glyph-name="ellipsis" unicode="&#x2026;" horiz-adv-x="639" 
d="M119 45q0 -20 -14.5 -35t-34.5 -15q-21 0 -35.5 15t-14.5 35q0 21 14.5 35.5t35.5 14.5q20 0 34.5 -14.5t14.5 -35.5zM369 45q0 -20 -14.5 -35t-34.5 -15q-21 0 -35.5 15t-14.5 35q0 21 14.5 35.5t35.5 14.5q20 0 34.5 -14.5t14.5 -35.5zM619 45q0 -20 -14.5 -35
t-34.5 -15q-21 0 -35.5 15t-14.5 35q0 21 14.5 35.5t35.5 14.5q20 0 34.5 -14.5t14.5 -35.5z" />
    <glyph glyph-name="Euro" unicode="&#x20ac;" horiz-adv-x="749" 
d="M676 111q-34 -30 -90 -57.5t-139 -27.5q-140 0 -243.5 83t-118.5 229h-55v28h53v7.5v7.5q0 10 0.5 19t1.5 18h-55v28h58q22 143 131.5 224.5t244.5 81.5q60 0 114.5 -23t85.5 -46l-18 -35q-34 34 -83 58.5t-106 24.5q-124 0 -212 -77.5t-102 -207.5h327v-28h-329v-7.5
v-7.5v-19t1 -18h278v-28h-275q19 -152 116.5 -215t208.5 -63q69 0 121.5 23t76.5 39z" />
    <glyph glyph-name="afii61352" unicode="&#x2116;" horiz-adv-x="966" 
d="M70 0v768h37l381 -625v625h36v-768h-19l-399 648v-648h-36zM854 380v-28h-210v28h210zM595 611q0 65 44 109.5t113 44.5q66 0 111 -44.5t45 -109.5q0 -67 -45 -111t-111 -44q-69 0 -113 44.5t-44 110.5zM630 611q0 -66 37 -101.5t85 -35.5q47 0 84 35.5t37 101.5
q0 65 -37 100.5t-84 35.5q-48 0 -85 -35.5t-37 -100.5zM854 308v-28h-210v28h210z" />
    <glyph glyph-name="trademark" unicode="&#x2122;" horiz-adv-x="586" 
d="M112 454v287h-52q-13 0 -24 -8t-21 -17l-5 4l14 48h216l14 -48l-5 -4q-10 9 -21 17t-24 8h-54v-287h-38zM277 454v314h25l120 -193l117 193h31v-314h-38v253l-111 -182h-8l-102 165v-236h-34z" />
    </font>
</defs>
</svg>
