<svg width="590" height="590" viewBox="0 0 590 590" fill="none" xmlns="http://www.w3.org/2000/svg">
<path d="M315.117 218.111L315.244 219.45L316.022 218.354L439.844 44.1233L350.866 238.471L350.307 239.693L351.529 239.134L545.877 150.156L371.646 273.978L370.55 274.756L371.889 274.883L584.688 295L371.889 315.117L370.55 315.244L371.646 316.022L545.877 439.844L351.529 350.866L350.307 350.307L350.866 351.529L439.844 545.877L316.022 371.646L315.244 370.55L315.117 371.889L295 584.688L274.883 371.889L274.756 370.55L273.978 371.646L150.156 545.877L239.134 351.529L239.693 350.307L238.471 350.866L44.1233 439.844L218.354 316.022L219.45 315.244L218.111 315.117L5.31248 295L218.111 274.883L219.45 274.756L218.354 273.978L44.1233 150.156L238.471 239.134L239.693 239.693L239.134 238.471L150.156 44.1233L273.978 218.354L274.756 219.45L274.883 218.111L295 5.31248L315.117 218.111Z" stroke="url(#paint0_radial_113_93)"/>
<defs>
<radialGradient id="paint0_radial_113_93" cx="0" cy="0" r="1" gradientUnits="userSpaceOnUse" gradientTransform="translate(308.974 295) rotate(-79.8545) scale(449.529 346.05)">
<stop stop-color="#EEA436"/>
<stop offset="1" stop-color="#FFD26D"/>
</radialGradient>
</defs>
</svg>
